<svg width="100px" height="100px" version="1.1" xmlns="http://www.w3.org/2000/svg" xmlns:xlink="http://www.w3.org/1999/xlink">
  <clipPath id="myClip">
      <path d="M50,51.2206556 L40.5734623,57.8192319 C40.121013,58.1359464 39.4974826,58.0259116 39.1807681,57.5734623 C38.8640536,57.121013 38.9740884,56.4974826 39.4265377,56.1807681 L49.4265377,49.1807681 C49.7708578,48.939744 50.2291422,48.939744 50.5734623,49.1807681 L60.5734623,56.1807681 C61.0259116,56.4974826 61.1359464,57.121013 60.8192319,57.5734623 C60.5025174,58.0259116 59.878987,58.1359464 59.4265377,57.8192319 L50,51.2206556 Z"></path>
      <path d="M42.6,49.8 C42.1581722,50.1313708 41.5313708,50.0418278 41.2,49.6 C40.8686292,49.1581722 40.9581722,48.5313708 41.4,48.2 L49.4,42.2 C49.7555556,41.9333333 50.2444444,41.9333333 50.6,42.2 L58.6,48.2 C59.0418278,48.5313708 59.1313708,49.1581722 58.8,49.6 C58.4686292,50.0418278 57.8418278,50.1313708 57.4,49.8 L50,44.25 L42.6,49.8 Z"></path>
  </clipPath>
  <path fill="rgba(255,255,255,.2)" d="M42.6,49.8 C42.1581722,50.1313708 41.5313708,50.0418278 41.2,49.6 C40.8686292,49.1581722 40.9581722,48.5313708 41.4,48.2 L49.4,42.2 C49.7555556,41.9333333 50.2444444,41.9333333 50.6,42.2 L58.6,48.2 C59.0418278,48.5313708 59.1313708,49.1581722 58.8,49.6 C58.4686292,50.0418278 57.8418278,50.1313708 57.4,49.8 L50,44.25 L42.6,49.8 Z"></path>
  <path fill="rgba(255,255,255,.4)" d="M50,51.2206556 L40.5734623,57.8192319 C40.121013,58.1359464 39.4974826,58.0259116 39.1807681,57.5734623 C38.8640536,57.121013 38.9740884,56.4974826 39.4265377,56.1807681 L49.4265377,49.1807681 C49.7708578,48.939744 50.2291422,48.939744 50.5734623,49.1807681 L60.5734623,56.1807681 C61.0259116,56.4974826 61.1359464,57.121013 60.8192319,57.5734623 C60.5025174,58.0259116 59.878987,58.1359464 59.4265377,57.8192319 L50,51.2206556 Z"></path>
  <rect id="rect" x="0" y="0" width="100px" height="100px" style="fill: url(#smallGradient)" clip-path="url(#myClip)" />
  <defs>
    <radialGradient id="smallGradient" fy="500%">
      <stop offset="0%" stop-color="rgb(255,255,255)" style="stop-opacity: 1;"></stop>
      <stop offset="20%" stop-color="rgb(255,255,255)" style="stop-opacity: .5;"></stop>
      <stop offset="30%" stop-color="rgb(255,255,255)" style="stop-opacity: 0;"></stop>
      <stop offset="100%" stop-color="rgb(255,255,255)" style="stop-opacity: 0;"></stop>
      <animate attributeName="fy" dur="2000ms" from="100%" to="-100%" repeatCount="indefinite" />
    </radialGradient>
  </defs>
</svg>